<svg width="146" height="108" viewBox="0 0 146 108" fill="none" xmlns="http://www.w3.org/2000/svg">
<path d="M23.2273 9.15253H3.31818C1.4856 9.15253 0 10.7916 0 12.8135V100.678C0 102.7 1.4856 104.339 3.31818 104.339H23.2273C25.0599 104.339 26.5455 102.7 26.5455 100.678V12.8135C26.5455 10.7916 25.0599 9.15253 23.2273 9.15253Z" fill="#185FA5"/>
<path d="M3.31818 9.15253H1.65909C0.7428 9.15253 0 9.97207 0 10.983V102.508C0 103.519 0.7428 104.339 1.65909 104.339H3.31818C4.23447 104.339 4.97727 103.519 4.97727 102.508V10.983C4.97727 9.97207 4.23447 9.15253 3.31818 9.15253Z" fill="#378ADD"/>
<path d="M21.5682 18.3051H6.63635V20.1356H21.5682V18.3051Z" fill="#378ADD"/>
<path d="M21.5682 23.7966H6.63635V25.6271H21.5682V23.7966Z" fill="#378ADD"/>
<path d="M16.5909 29.2881H6.63635V31.1187H16.5909V29.2881Z" fill="#378ADD"/>
<path d="M53.0909 0H33.1818C31.3492 0 29.8636 1.63909 29.8636 3.66102V100.678C29.8636 102.7 31.3492 104.339 33.1818 104.339H53.0909C54.9235 104.339 56.4091 102.7 56.4091 100.678V3.66102C56.4091 1.63909 54.9235 0 53.0909 0Z" fill="#378ADD"/>
<path d="M33.1818 0H31.5227C30.6064 0 29.8636 0.819547 29.8636 1.83051V102.508C29.8636 103.519 30.6064 104.339 31.5227 104.339H33.1818C34.0981 104.339 34.8409 103.519 34.8409 102.508V1.83051C34.8409 0.819547 34.0981 0 33.1818 0Z" fill="#85B7EB"/>
<path d="M51.4318 10.983H36.5V12.8135H51.4318V10.983Z" fill="#85B7EB"/>
<path d="M51.4318 16.4746H36.5V18.3051H51.4318V16.4746Z" fill="#85B7EB"/>
<path d="M46.4545 21.9661H36.5V23.7966H46.4545V21.9661Z" fill="#85B7EB"/>
<path d="M82.9545 5.49152H63.0454C61.2129 5.49152 59.7273 7.13061 59.7273 9.15253V100.678C59.7273 102.7 61.2129 104.339 63.0454 104.339H82.9545C84.7871 104.339 86.2727 102.7 86.2727 100.678V9.15253C86.2727 7.13061 84.7871 5.49152 82.9545 5.49152Z" fill="#BA7517"/>
<path d="M63.0454 5.49152H61.3864C60.4701 5.49152 59.7273 6.31106 59.7273 7.32202V102.508C59.7273 103.519 60.4701 104.339 61.3864 104.339H63.0454C63.9617 104.339 64.7045 103.519 64.7045 102.508V7.32202C64.7045 6.31106 63.9617 5.49152 63.0454 5.49152Z" fill="#FAC775"/>
<path d="M81.2954 14.644H66.3636V16.4746H81.2954V14.644Z" fill="#FAC775"/>
<path d="M81.2954 20.1356H66.3636V21.9661H81.2954V20.1356Z" fill="#FAC775"/>
<path d="M76.3182 25.6271H66.3636V27.4576H76.3182V25.6271Z" fill="#FAC775"/>
<path d="M111.159 12.8135H91.25C89.4174 12.8135 87.9318 14.4526 87.9318 16.4746V100.678C87.9318 102.7 89.4174 104.339 91.25 104.339H111.159C112.992 104.339 114.477 102.7 114.477 100.678V16.4746C114.477 14.4526 112.992 12.8135 111.159 12.8135Z" fill="#185FA5"/>
<path d="M91.25 12.8135H89.5909C88.6746 12.8135 87.9318 13.6331 87.9318 14.644V102.508C87.9318 103.519 88.6746 104.339 89.5909 104.339H91.25C92.1663 104.339 92.9091 103.519 92.9091 102.508V14.644C92.9091 13.6331 92.1663 12.8135 91.25 12.8135Z" fill="#378ADD"/>
<path d="M109.5 21.9661H94.5682V23.7966H109.5V21.9661Z" fill="#378ADD"/>
<path d="M109.5 27.4576H94.5682V29.2881H109.5V27.4576Z" fill="#378ADD"/>
<path d="M104.523 32.9492H94.5682V34.7797H104.523V32.9492Z" fill="#378ADD"/>
<path d="M141.023 3.66101H121.114C119.281 3.66101 117.795 5.3001 117.795 7.32203V100.678C117.795 102.7 119.281 104.339 121.114 104.339H141.023C142.855 104.339 144.341 102.7 144.341 100.678V7.32203C144.341 5.3001 142.855 3.66101 141.023 3.66101Z" fill="#378ADD"/>
<path d="M121.114 3.66101H119.455C118.538 3.66101 117.795 4.48056 117.795 5.49152V102.508C117.795 103.519 118.538 104.339 119.455 104.339H121.114C122.03 104.339 122.773 103.519 122.773 102.508V5.49152C122.773 4.48056 122.03 3.66101 121.114 3.66101Z" fill="#85B7EB"/>
<path d="M139.364 12.8135H124.432V14.644H139.364V12.8135Z" fill="#85B7EB"/>
<path d="M139.364 18.3051H124.432V20.1356H139.364V18.3051Z" fill="#85B7EB"/>
<path d="M134.386 23.7966H124.432V25.6271H134.386V23.7966Z" fill="#85B7EB"/>
<path d="M144.54 104.339H1.46C0.653664 104.339 0 104.749 0 105.254V107.085C0 107.59 0.653664 108 1.46 108H144.54C145.346 108 146 107.59 146 107.085V105.254C146 104.749 145.346 104.339 144.54 104.339Z" fill="#378ADD"/>
<path d="M103 27H26.3333C24.4924 27 23 28.6468 23 30.6781V36.1954C23 38.2268 24.4924 39.8735 26.3333 39.8735H103C104.841 39.8735 106.333 38.2268 106.333 36.1954V30.6781C106.333 28.6468 104.841 27 103 27Z" fill="#E6F1FB"/>
<path d="M39.6667 39.8733H89.6668L94.6668 76.6548H34.6667L39.6667 39.8733Z" fill="#B5D4F4"/>
<path d="M103 74.8159H26.3332C25.4128 74.8159 24.6666 75.6393 24.6666 76.655V78.4941C24.6666 79.5098 25.4128 80.3331 26.3332 80.3331H103C103.92 80.3331 104.667 79.5098 104.667 78.4941V76.655C104.667 75.6393 103.92 74.8159 103 74.8159Z" fill="#85B7EB"/>
<path d="M106.333 32.5173C117.445 41.0997 121.333 52.7472 118 67.4598" stroke="#E6F1FB" stroke-width="1.2"/>
<path d="M113 65.6205L109.667 78.4941" stroke="#B5D4F4"/>
<path d="M118 67.4598L116.334 80.3333" stroke="#B5D4F4"/>
<path d="M123 63.7814L121.333 76.655" stroke="#B5D4F4"/>
<path d="M118 70.2182C120.301 70.2182 122.167 68.1597 122.167 65.6205C122.167 63.0813 120.301 61.0228 118 61.0228C115.699 61.0228 113.833 63.0813 113.833 65.6205C113.833 68.1597 115.699 70.2182 118 70.2182Z" fill="#85B7EB"/>
</svg>
