<svg width="126" height="67" viewBox="0 0 126 67" fill="none" xmlns="http://www.w3.org/2000/svg">
<path d="M100 0H4.16668C1.86549 0 0 2.05845 0 4.59768V11.4942C0 14.0334 1.86549 16.0919 4.16668 16.0919H100C102.301 16.0919 104.167 14.0334 104.167 11.4942V4.59768C104.167 2.05845 102.301 0 100 0Z" fill="#E6F1FB"/>
<path d="M20.8334 16.0914H83.3336L89.5836 62.0682H14.5834L20.8334 16.0914Z" fill="#B5D4F4"/>
<path d="M100 59.7698H4.16647C3.01588 59.7698 2.08313 60.799 2.08313 62.0686V64.3675C2.08313 65.6371 3.01588 66.6663 4.16647 66.6663H100C101.151 66.6663 102.083 65.6371 102.083 64.3675V62.0686C102.083 60.799 101.151 59.7698 100 59.7698Z" fill="#85B7EB"/>
<path d="M104.167 6.89673C118.056 17.6247 122.917 32.184 118.75 50.5747" stroke="#E6F1FB" stroke-width="1.2"/>
<path d="M112.5 48.2756L108.334 64.3675" stroke="#B5D4F4"/>
<path d="M118.75 50.5748L116.667 66.6667" stroke="#B5D4F4"/>
<path d="M125 45.9767L122.917 62.0686" stroke="#B5D4F4"/>
<path d="M118.75 54.0227C121.627 54.0227 123.959 51.4496 123.959 48.2756C123.959 45.1015 121.627 42.5285 118.75 42.5285C115.874 42.5285 113.542 45.1015 113.542 48.2756C113.542 51.4496 115.874 54.0227 118.75 54.0227Z" fill="#85B7EB"/>
</svg>
